<svg width="46" height="20" viewBox="0 0 46 20" fill="none" xmlns="http://www.w3.org/2000/svg">
<path d="M8.66532 2.57401C9.2051 1.88106 9.57134 0.950732 9.47481 0C8.68466 0.0403452 7.72043 0.535056 7.1622 1.22846C6.66092 1.82234 6.21731 2.79163 6.333 3.70248C7.21986 3.78142 8.1061 3.24747 8.66532 2.57401Z" fill="#F2F2F2"/>
<path d="M9.46443 3.88028C8.17631 3.80152 7.08107 4.63057 6.46589 4.63057C5.85044 4.63057 4.90842 3.91998 3.88956 3.93909C2.56347 3.95913 1.33302 4.72863 0.66008 5.9525C-0.724034 8.40087 0.294821 12.0327 1.64079 14.0267C2.29439 15.0132 3.08221 16.0995 4.12014 16.0604C5.10085 16.0209 5.48527 15.4086 6.67731 15.4086C7.86854 15.4086 8.21482 16.0604 9.25292 16.0406C10.3295 16.0209 11.0026 15.0536 11.6562 14.0661C12.406 12.9415 12.713 11.8557 12.7322 11.796C12.7129 11.7763 10.6563 10.9665 10.6372 8.53854C10.6178 6.50557 12.2519 5.53847 12.3288 5.47855C11.4061 4.07796 9.96428 3.91998 9.46443 3.88028Z" fill="#F2F2F2"/>
<path d="M20.6811 1.12878C23.4809 1.12878 25.4304 3.10947 25.4304 5.99319C25.4304 8.8872 23.4407 10.8782 20.6109 10.8782H17.5111V15.9375H15.2715V1.12878H20.6811ZM17.511 8.94877H20.0808C22.0308 8.94877 23.1405 7.87131 23.1405 6.00348C23.1405 4.13584 22.0308 3.06848 20.0909 3.06848H17.511V8.94877Z" fill="#F2F2F2"/>
<path d="M26.0156 12.8688C26.0156 10.9804 27.4255 9.82077 29.9256 9.67713L32.8052 9.5027V8.67153C32.8052 7.47082 32.0152 6.75242 30.6956 6.75242C29.4453 6.75242 28.6654 7.36808 28.4756 8.33287H26.4358C26.5558 6.38288 28.1755 4.94617 30.7754 4.94617C33.3252 4.94617 34.955 6.3316 34.955 8.49692V15.9372H32.8851V14.1618H32.8353C32.2254 15.3626 30.8954 16.1219 29.5155 16.1219C27.4556 16.1219 26.0156 14.8082 26.0156 12.8688ZM32.8051 11.8939V11.0422L30.2152 11.2063C28.9253 11.2988 28.1954 11.8837 28.1954 12.8073C28.1954 13.7514 28.9553 14.3672 30.1153 14.3672C31.6252 14.367 32.8051 13.2997 32.8051 11.8939Z" fill="#F2F2F2"/>
<path d="M36.9091 19.9092V18.1133C37.0689 18.1542 37.4288 18.1542 37.6088 18.1542C38.6087 18.1542 39.1488 17.7233 39.4786 16.615C39.4786 16.5944 39.6688 15.9581 39.6688 15.9478L35.8691 5.14148H38.2087L40.8689 13.9262H40.9086L43.5688 5.14148H45.8483L41.9083 16.5019C41.0087 19.119 39.9687 19.9605 37.7889 19.9605C37.6088 19.9605 37.0688 19.9399 36.9091 19.9092Z" fill="#F2F2F2"/>
</svg>
