<svg width="17" height="16" viewBox="0 0 17 16" fill="none" xmlns="http://www.w3.org/2000/svg">
<path d="M11.1471 0.857069C11.1471 0.383723 10.7634 0 10.2901 0H2.35769C1.88435 0 1.50062 0.383723 1.50062 0.857069H11.1471ZM1.50062 0.857069H1.10404C0.888884 0.857069 0.71447 1.03148 0.71447 1.24664C0.71447 1.46179 0.892287 1.6362 1.10744 1.6362C1.32259 1.6362 1.50041 1.46179 1.50041 1.24664V0.857284C1.50041 0.857166 1.5005 0.857069 1.50062 0.857069ZM11.5418 1.6362C11.757 1.6362 11.9331 1.46179 11.9331 1.24664C11.9331 1.03148 11.7587 0.857069 11.5435 0.857069H11.1471V1.24323C11.1471 1.46026 11.3248 1.6362 11.5418 1.6362ZM0.357235 1.63644C0.159939 1.63644 0 1.79638 0 1.99367V13.0777C0 13.4723 0.319879 13.7922 0.71447 13.7922V1.99367C0.71447 1.79638 0.55453 1.63644 0.357235 1.63644ZM12.2903 1.63644C12.093 1.63644 11.9331 1.79638 11.9331 1.99367V13.435C11.9331 13.6323 12.093 13.7922 12.2903 13.7922C12.4876 13.7922 12.6476 13.6323 12.6476 13.435V1.99367C12.6476 1.79638 12.4876 1.63644 12.2903 1.63644ZM0.71447 13.7922V14.2563C0.71447 14.4733 0.890408 14.6493 1.10744 14.6493C1.32447 14.6493 1.50041 14.4733 1.50041 14.2563V14.2208C1.50041 13.9841 1.30855 13.7922 1.07187 13.7922H0.71447ZM11.1469 14.6493H11.5043C11.741 14.6493 11.9329 14.4574 11.9329 14.2208V14.1852C11.9329 13.9682 11.7569 13.7922 11.5399 13.7922C11.3229 13.7922 11.1469 13.9682 11.1469 14.1852V14.6493ZM1.50041 15.4284H10.3678C10.7981 15.4284 11.1469 15.0796 11.1469 14.6493H1.89019C1.67504 14.6493 1.50062 14.8237 1.50062 15.0389V15.4282C1.50062 15.4283 1.50053 15.4284 1.50041 15.4284Z" fill="#F2F2F2"/>
<path d="M11.577 0C11.3403 0 11.1484 0.191862 11.1484 0.428535C11.1484 0.665208 11.3403 0.857069 11.577 0.857069H14.8642C14.8642 0.383723 14.4804 0 14.0071 0H11.577ZM14.8642 0.857069C14.8642 1.28737 15.2198 1.6362 15.6501 1.6362C15.6501 1.2059 15.2945 0.857069 14.8642 0.857069ZM15.6501 1.6362V13.7922C16.0447 13.7922 16.3646 13.4723 16.3646 13.0777V1.99367C16.3646 1.79638 16.2046 1.63644 16.0073 1.63644H15.6503C15.6502 1.63644 15.6501 1.63633 15.6501 1.6362ZM14.8642 14.6493C15.2982 14.6493 15.6501 14.2974 15.6501 13.8633V13.7922C15.216 13.7922 14.8642 14.1441 14.8642 14.5782V14.6493ZM11.1484 15.0389C11.1484 15.254 11.3229 15.4284 11.538 15.4284H14.085C14.5153 15.4284 14.8642 15.0796 14.8642 14.6493H11.538C11.3229 14.6493 11.1484 14.8237 11.1484 15.0389Z" fill="#F2F2F2"/>
<path d="M2.2168 3.90952C2.2168 4.46181 2.66451 4.90952 3.2168 4.90952H3.43189C3.98417 4.90952 4.43189 4.46181 4.43189 3.90952V3.41601C4.43189 2.86373 3.98417 2.41602 3.43189 2.41602H3.2168C2.66451 2.41602 2.2168 2.86373 2.2168 3.41602V3.90952ZM13.3639 4.51655C13.3639 4.73358 13.5399 4.90952 13.7569 4.90952C13.9739 4.90952 14.1499 4.73358 14.1499 4.51655V2.80898C14.1499 2.59195 13.9739 2.41602 13.7569 2.41602C13.5399 2.41602 13.3639 2.59195 13.3639 2.80898V4.51655ZM15.2575 2.41602C15.0405 2.41602 14.8646 2.59195 14.8646 2.80898V4.51655C14.8646 4.73358 15.0405 4.90952 15.2575 4.90952C15.4746 4.90952 15.6505 4.73358 15.6505 4.51655V2.80898C15.6505 2.59195 15.4746 2.41602 15.2575 2.41602ZM7.43314 7.46802C7.43314 6.91574 6.98542 6.46802 6.43314 6.46802H6.21804C5.66576 6.46802 5.21804 6.91574 5.21804 7.46802V7.96153C5.21804 8.51381 5.66576 8.96153 6.21804 8.96153H6.43314C6.98542 8.96153 7.43314 8.51381 7.43314 7.96153V7.46802ZM13.3639 8.56856C13.3639 8.78559 13.5399 8.96153 13.7569 8.96153C13.9739 8.96153 14.1499 8.78559 14.1499 8.56856V6.86099C14.1499 6.64396 13.9739 6.46802 13.7569 6.46802C13.5399 6.46802 13.3639 6.64396 13.3639 6.86099V8.56856ZM14.8646 8.56856C14.8646 8.78559 15.0405 8.96153 15.2575 8.96153C15.4746 8.96153 15.6505 8.78559 15.6505 8.56856V6.86099C15.6505 6.64396 15.4746 6.46802 15.2575 6.46802C15.0405 6.46802 14.8646 6.64396 14.8646 6.86099V8.56856ZM7.43314 12.0135C7.43314 12.5658 7.88085 13.0135 8.43314 13.0135H8.64823C9.20051 13.0135 9.64823 12.5658 9.64823 12.0135V11.598C9.64823 11.0457 9.20051 10.598 8.64823 10.598H8.43314C7.88085 10.598 7.43314 11.0457 7.43314 11.598V12.0135ZM13.3639 12.6206C13.3639 12.8376 13.5399 13.0135 13.7569 13.0135C13.9739 13.0135 14.1499 12.8376 14.1499 12.6206V10.9909C14.1499 10.7739 13.9739 10.598 13.7569 10.598C13.5399 10.598 13.3639 10.7739 13.3639 10.9909V12.6206ZM14.8646 12.6206C14.8646 12.8376 15.0405 13.0135 15.2575 13.0135C15.4746 13.0135 15.6505 12.8376 15.6505 12.6206V10.9909C15.6505 10.7739 15.4746 10.598 15.2575 10.598C15.0405 10.598 14.8646 10.7739 14.8646 10.9909V12.6206Z" fill="#F2F2F2"/>
</svg>
