<svg width="42" height="17" viewBox="0 0 42 17" fill="none" xmlns="http://www.w3.org/2000/svg">
<path d="M19.3567 7.81039V12.5455H17.834V0.852539H21.8708C22.8939 0.852539 23.7663 1.18912 24.4801 1.8622C25.2098 2.53528 25.5746 3.35706 25.5746 4.32755C25.5746 5.32154 25.2098 6.14332 24.4801 6.80857C23.7742 7.47381 22.9019 7.80256 21.8708 7.80256H19.3567V7.81039ZM19.3567 2.29264V6.37029H21.9026C22.5053 6.37029 23.0129 6.16682 23.4094 5.76765C23.8139 5.36847 24.0201 4.88326 24.0201 4.33538C24.0201 3.79534 23.8139 3.31789 23.4094 2.91879C23.0129 2.50394 22.5133 2.30047 21.9026 2.30047H19.3567V2.29264Z" fill="#F2F2F2"/>
<path d="M29.5568 4.28027C30.6829 4.28027 31.5712 4.57768 32.2215 5.17249C32.8719 5.7673 33.197 6.58125 33.197 7.61441V12.5452H31.7457V11.4338H31.6822C31.0557 12.3496 30.215 12.8035 29.1681 12.8035C28.272 12.8035 27.5264 12.5452 26.9236 12.0208C26.3209 11.4964 26.0195 10.8468 26.0195 10.0642C26.0195 9.23455 26.3368 8.57714 26.9713 8.09186C27.6058 7.59882 28.4544 7.35618 29.5092 7.35618C30.4133 7.35618 31.1589 7.52055 31.7378 7.84922V7.50488C31.7378 6.98051 31.5316 6.54223 31.1112 6.1744C30.6909 5.80656 30.1992 5.62651 29.6361 5.62651C28.7874 5.62651 28.1133 5.97868 27.6216 6.69094L26.2812 5.86132C27.0188 4.80465 28.1133 4.28027 29.5568 4.28027ZM27.5899 10.0876C27.5899 10.4789 27.7565 10.8077 28.0975 11.0659C28.4306 11.3242 28.8271 11.4573 29.2792 11.4573C29.9216 11.4573 30.4926 11.2225 30.9923 10.7528C31.492 10.2832 31.7457 9.73535 31.7457 9.10144C31.2699 8.7336 30.6116 8.54572 29.763 8.54572C29.1444 8.54572 28.6289 8.69443 28.2165 8.984C27.7961 9.28924 27.5899 9.65716 27.5899 10.0876Z" fill="#F2F2F2"/>
<path d="M41.4766 4.53809L36.4008 16.0589H34.8304L36.7179 12.0282L33.3711 4.53809H35.0286L37.4397 10.2828H37.4714L39.819 4.53809H41.4766Z" fill="#F2F2F2"/>
<path d="M13.1758 5.44629H6.79297V8.02908L10.469 8.02988C10.3199 8.88924 9.84006 9.6218 9.10486 10.1102V10.1107C9.1051 10.1105 9.10542 10.1104 9.10567 10.1102L9.03948 11.6539L11.2938 11.7851C11.2935 11.7853 11.2932 11.7857 11.293 11.7859C12.5706 10.619 13.3027 8.89395 13.3027 6.85593C13.3027 6.36593 13.2583 5.89711 13.1758 5.44629Z" fill="#0085F7"/>
<path d="M9.10531 10.1106C9.10506 10.1108 9.10474 10.111 9.1045 10.1111C8.49552 10.5162 7.71138 10.7532 6.79423 10.7532C5.02165 10.7532 3.51795 9.57451 2.97945 7.98571H2.97921C2.97929 7.98595 2.97937 7.98627 2.97945 7.98651L1.09743 7.69238L0.722656 9.71434C1.84105 11.9039 4.13925 13.4064 6.79431 13.4064C8.62903 13.4064 10.1705 12.8111 11.2927 11.7863C11.293 11.786 11.2933 11.7858 11.2936 11.7855L9.10531 10.1106Z" fill="#00A94B"/>
<path d="M2.7671 6.70427C2.7671 6.25816 2.84245 5.82692 2.97968 5.42151L2.39201 3.69336H0.72248C0.260135 4.59893 0 5.62106 0 6.70427C0 7.78748 0.260945 8.80961 0.72248 9.71518L0.722804 9.71494L2.97968 7.98703C2.9796 7.98679 2.97952 7.98655 2.97944 7.98623C2.84237 7.58114 2.7671 7.15014 2.7671 6.70427Z" fill="#FFBB00"/>
<path d="M6.79463 0C4.14014 0 1.84097 1.5027 0.722656 3.69263L2.97978 5.42078C3.51828 3.83198 5.02197 2.65331 6.79455 2.65331C7.79621 2.65331 8.69327 2.9938 9.40149 3.65905L11.3406 1.74702C10.1629 0.664446 8.62749 0 6.79463 0Z" fill="#FF4031"/>
</svg>
