<svg width="33" height="21" viewBox="0 0 33 21" fill="none" xmlns="http://www.w3.org/2000/svg">
<path d="M11.4922 2.24512H21.2241V18.7515H11.4922V2.24512Z" fill="#FF5F00"/>
<path d="M12.4933 10.5003C12.4921 8.91092 12.839 7.34204 13.5079 5.91243C14.1768 4.48282 15.15 3.22994 16.354 2.24861C14.8628 1.03161 13.072 0.274834 11.1862 0.0647658C9.30045 -0.145302 7.39581 0.199815 5.68998 1.06067C3.98415 1.92153 2.54596 3.2634 1.53977 4.93292C0.533586 6.60243 0 8.53224 0 10.5018C0 12.4713 0.533586 14.4011 1.53977 16.0706C2.54596 17.7401 3.98415 19.082 5.68998 19.9429C7.39581 20.8037 9.30045 21.1488 11.1862 20.9388C13.072 20.7287 14.8628 19.9719 16.354 18.7549C15.1496 17.7733 14.1762 16.5199 13.5073 15.0898C12.8384 13.6597 12.4916 12.0902 12.4933 10.5003V10.5003Z" fill="#EB001B"/>
<path d="M31.7445 17.0049V16.6667H31.8849V16.5967H31.5508V16.6667H31.6827V17.0049L31.7445 17.0049ZM32.3931 17.0049V16.5967H32.292L32.1741 16.8883L32.0561 16.5967H31.9551V17.0049H32.0281V16.6958L32.1376 16.9612H32.2134L32.3229 16.6958V17.0049H32.3931Z" fill="#F79E1B"/>
<path d="M32.7129 10.4996C32.7129 12.4693 32.1792 14.3992 31.1728 16.0688C30.1665 17.7384 28.728 19.0802 27.022 19.941C25.3159 20.8017 23.4111 21.1466 21.5252 20.9362C19.6393 20.7258 17.8485 19.9687 16.3574 18.7513C17.5609 17.7691 18.5339 16.5159 19.203 15.0862C19.872 13.6565 20.2196 12.0877 20.2196 10.4981C20.2196 8.90856 19.872 7.33976 19.203 5.91007C18.5339 4.48039 17.5609 3.22717 16.3574 2.24496C17.8485 1.02758 19.6393 0.270422 21.5252 0.0600487C23.4111 -0.150325 25.316 0.19457 27.022 1.05531C28.7281 1.91605 30.1665 3.2579 31.1728 4.92748C32.1792 6.59707 32.7129 8.527 32.7129 10.4967V10.4996Z" fill="#F79E1B"/>
</svg>
