<svg width="18" height="18" viewBox="0 0 18 18" fill="none" xmlns="http://www.w3.org/2000/svg">
<path d="M12.8418 15.6079L4.34197 15.659L4.33345 14.243L12.8333 14.1919L12.8418 15.6079ZM4.33345 14.243L2.91649 14.2515L2.90796 12.8345L4.32493 12.826L4.33345 14.243ZM14.2503 14.1834L12.8333 14.1919L12.8248 12.7749L14.2417 12.7664L14.2503 14.1834ZM2.90796 12.8345L1.49197 12.8431L1.44086 4.34321L2.85685 4.3347L2.90796 12.8345ZM11.4088 12.7834L5.7419 12.8175L5.73338 11.4015L11.4003 11.3674L11.4088 12.7834ZM15.6577 12.7579L14.2417 12.7664L14.1992 5.68351L15.6151 5.675L15.6577 12.7579ZM5.73338 11.4015L4.31642 11.41L4.28234 5.74314L5.69931 5.73462L5.73338 11.4015ZM12.8172 11.3579L11.4003 11.3665L11.3832 8.5335L12.8002 8.52498L12.8172 11.3579ZM11.3737 7.11654L9.95872 7.12505L9.97576 9.95898L7.14183 9.97602L7.12479 7.14209L9.95774 7.12506L9.94923 5.70907L11.3652 5.70055L11.3737 7.11654ZM8.53226 5.71759L5.69931 5.73462L5.69079 4.31765L8.52374 4.30062L8.53226 5.71759ZM12.7822 5.69203L11.3662 5.70055L11.3577 4.28358L12.7737 4.27506L12.7822 5.69203ZM4.27382 4.32618L2.85783 4.33469L2.84931 2.91772L4.2653 2.90921L4.27382 4.32618ZM14.1821 2.85055L15.5991 2.84203L15.6076 4.25802L12.7737 4.27506L12.7652 2.85907L12.7661 2.85907L12.7576 1.4421L14.1736 1.43359L14.1821 2.85055ZM11.3492 2.86759L4.26628 2.91018L4.25776 1.49321L11.3406 1.45062L11.3492 2.86759Z" fill="white"/>
</svg>
